<svg width="80" height="80" viewBox="0 0 80 80" fill="none" xmlns="http://www.w3.org/2000/svg">
<circle cx="40" cy="40" r="40" fill="#D8223A"/>
<path d="M40 40C37.3875 40 35.151 39.0698 33.2906 37.2094C31.4302 35.349 30.5 33.1125 30.5 30.5C30.5 27.8875 31.4302 25.651 33.2906 23.7906C35.151 21.9302 37.3875 21 40 21C42.6125 21 44.849 21.9302 46.7094 23.7906C48.5698 25.651 49.5 27.8875 49.5 30.5C49.5 33.1125 48.5698 35.349 46.7094 37.2094C44.849 39.0698 42.6125 40 40 40ZM21 59V52.35C21 51.0042 21.3464 49.7672 22.0391 48.6391C22.7318 47.5109 23.6521 46.65 24.8 46.0562C27.2542 44.8292 29.7479 43.9089 32.2812 43.2953C34.8146 42.6818 37.3875 42.375 40 42.375C42.6125 42.375 45.1854 42.6818 47.7188 43.2953C50.2521 43.9089 52.7458 44.8292 55.2 46.0562C56.3479 46.65 57.2682 47.5109 57.9609 48.6391C58.6536 49.7672 59 51.0042 59 52.35V59H21ZM25.75 54.25H54.25V52.35C54.25 51.9146 54.1411 51.5187 53.9234 51.1625C53.7057 50.8062 53.4188 50.5292 53.0625 50.3312C50.925 49.2625 48.7677 48.4609 46.5906 47.9266C44.4135 47.3922 42.2167 47.125 40 47.125C37.7833 47.125 35.5865 47.3922 33.4094 47.9266C31.2323 48.4609 29.075 49.2625 26.9375 50.3312C26.5812 50.5292 26.2943 50.8062 26.0766 51.1625C25.8589 51.5187 25.75 51.9146 25.75 52.35V54.25ZM40 35.25C41.3062 35.25 42.4245 34.7849 43.3547 33.8547C44.2849 32.9245 44.75 31.8062 44.75 30.5C44.75 29.1937 44.2849 28.0755 43.3547 27.1453C42.4245 26.2151 41.3062 25.75 40 25.75C38.6938 25.75 37.5755 26.2151 36.6453 27.1453C35.7151 28.0755 35.25 29.1937 35.25 30.5C35.25 31.8062 35.7151 32.9245 36.6453 33.8547C37.5755 34.7849 38.6938 35.25 40 35.25Z" fill="#F9F9F9"/>
</svg>
